<svg id="Layer_1" data-name="Layer 1" xmlns="http://www.w3.org/2000/svg" viewBox="0 0 130 138"><defs><style>.cls-1{fill:#212121;}.cls-2{fill:#f06292;}.cls-3{fill:#f48fb1;}</style></defs><path class="cls-1" d="M67.2033,73.65183l-7.423-4.2857L35.127,112.067s-1.3476,6.62-1.9419,9.976c-.2231,1.259.7354,1.787,1.6967.979,2.6091-2.192,7.6683-6.669,7.6683-6.669Z"/><path class="cls-2" d="M40.3631,54.86763l7.6051-2.1852,39.5897,22.8572,1.9101,7.6787c.5158,1.9418-.503,2.9975-1.4237,2.466L38.9394,57.33353C38.0187,56.802,38.4236,55.39183,40.3631,54.86763Z"/><path class="cls-3" d="M73.4429,8.55922A5.99993,5.99993,0,0,1,81.639,6.36307l29.197,16.85716a6.00074,6.00074,0,0,1,2.197,8.1961L87.558,75.53963,47.9683,52.68253Z"/></svg>